<?xml version="1.0" encoding="UTF-8"?><svg id="Layer_1" xmlns="http://www.w3.org/2000/svg" viewBox="0 0 500 500"><defs><style>.cls-1{fill:#fff;}</style></defs><path class="cls-1" d="M409.69,346.49c-11.72,2.98-18.96,.13-25.46-9.63l-46.24-63.97-6.68-8.86-54,73.04c-6.17,8.79-12.64,12.61-24.16,9.5l69.14-92.82-64.37-83.84c11.07-2.15,18.72-1.06,25.51,8.86l47.96,64.77,48.31-64.41c6.19-8.79,12.84-12.13,23.95-8.89l-24.96,33.09-33.82,44.03c-4.03,5.03-3.47,8.47,.23,13.34l64.58,85.79ZM87.7,252.2l5.66-27.82c15.4-55.05,78.5-77.93,122.02-43.91,25.43,20.01,31.75,48.31,30.5,80.01H102.51c-2.15,57.07,38.92,91.51,91.29,73.94,18.37-6.17,29.19-20.55,34.6-38.55,2.75-9.02,7.3-10.43,15.77-7.85-4.33,22.5-14.09,41.31-34.72,53.07-30.83,17.61-74.83,11.92-97.98-12.56-13.79-14.2-19.49-32.2-22.04-51.44-.4-3.18-1.21-6.21-1.81-9.26,.05-5.21,.08-10.41,.08-15.62h0Zm15.08-3.83H232.33c-.85-41.27-26.54-70.57-61.66-70.83-38.55-.3-66.23,28.31-67.9,70.83Z"/></svg>