<?xml version="1.0" encoding="UTF-8"?><svg id="Layer_1" xmlns="http://www.w3.org/2000/svg" viewBox="0 0 500 500"><defs><style>.cls-1{fill:#fff;}</style></defs><path class="cls-1" d="M138.49,148.88c0-33.54,27.19-60.72,60.72-60.72h104.19c33.54,0,60.72,27.19,60.72,60.72,0,21.24-10.9,39.92-27.41,50.78,16.51,10.85,27.41,29.54,27.41,50.78,0,33.54-27.19,60.72-60.72,60.72h-1.32c-15.72,0-30.05-5.97-40.83-15.78v55.95c0,33.98-27.9,61.38-61.71,61.38s-61.05-27.1-61.05-60.72c0-21.23,10.9-39.92,27.41-50.78-16.51-10.85-27.41-29.54-27.41-50.78s10.9-39.92,27.41-50.78c-16.51-10.85-27.41-29.54-27.41-50.78Zm60.72-40.83c-22.55,0-40.83,18.28-40.83,40.83s18.28,40.83,40.83,40.83h42.15V108.05h-42.15Zm42.15,101.56h-42.15c-22.55,0-40.83,18.28-40.83,40.83s18.14,40.69,40.57,40.83c.09,0,.17,0,.26,0h42.15v-81.66Zm-42.15,101.56c-.09,0-.17,0-.26,0-22.43,.14-40.57,18.37-40.57,40.83s18.53,40.83,41.16,40.83,41.82-18.66,41.82-41.49v-40.17h-42.15Zm62.04-121.45h42.15c22.55,0,40.83-18.28,40.83-40.83s-18.28-40.83-40.83-40.83h-42.15v81.67Zm0,60.72c0,22.55,18.28,40.83,40.83,40.83h1.32c22.55,0,40.83-18.28,40.83-40.83s-18.28-40.83-40.83-40.83h-1.32c-22.55,0-40.83,18.28-40.83,40.83Z"/></svg>