<?xml version="1.0" encoding="UTF-8"?><svg id="Layer_1" xmlns="http://www.w3.org/2000/svg" viewBox="0 0 500 500"><defs><style>.cls-1{fill:#fff;}</style></defs><path class="cls-1" d="M384.71,140.57v216.07c0,7.81-3.1,15.31-8.63,20.83-5.53,5.53-13.02,8.63-20.83,8.63H139.18c-7.81,0-15.31-3.1-20.83-8.63-5.53-5.53-8.63-13.02-8.63-20.83V140.57c0-7.81,3.1-15.31,8.63-20.83,5.53-5.53,13.02-8.63,20.83-8.63h216.07c7.81,0,15.31,3.1,20.83,8.63,5.53,5.53,8.63,13.02,8.63,20.83Zm-152.74,70.59h-30.41c-15.35-4.02-50.07-2.98-50.07,28.7,0,11.54,5.77,19.64,13.41,23.39-9.63,8.82-14.19,12.98-14.19,18.87,0,4.22,1.71,8.11,6.86,10.29-5.46,5.16-8.59,8.89-8.59,15.91,.01,12.32,10.77,19.47,39,19.47s42.89-10.13,42.89-28.07c0-22.51-17.33-21.68-58.17-24.17l5.14-8.24c10.43,2.91,45.54,3.82,45.54-26.05,0-7.18-2.97-12.17-5.77-15.76l14.35-1.09v-13.25Zm-60.51,85.47c29.81,2.03,36.19,1.29,36.19,7.33,0,12.28-40.24,12.31-40.24,.93,0-3.12,2.02-5.77,4.05-8.26Zm17.16-71.6c-19.82,0-20.72,27.3-.46,27.3s19.47-27.3,.46-27.3Zm95.13,53.55l-7.98-1.09c-2.35-.31-2.5-.61-2.5-3.12v-64.73h-32.29l-1.71,12.63c9.67,3.41,10.43,2.98,10.43,6.24v45.88c0,3.45-.19,2.81-10.43,4.22v12.31h44.45l.03-12.33Zm-38.38-95.47c0,8.89,5.14,14.04,14.03,14.04s14.2-5.15,14.2-14.04-5.14-13.69-14.19-13.69-14.04,4.81-14.04,13.69Zm100.06,101.71l-4.22-13.73c-25.12,9.43-23.23-7.62-23.23-10.27v-37.27h23.23v-15.6h-21.99c-1.76,0-1.23,1.55-1.23-23.71h-14.84c-1.71,17-7.17,23.87-20.87,25.43v13.88c12.57,0,12.17-.52,12.17,1.56v40.86c0,17.63,7.02,25.11,25.58,25.11,8.87,0,18.69-2.96,25.4-6.26Z"/></svg>