<?xml version="1.0" encoding="UTF-8"?><svg id="Layer_1" xmlns="http://www.w3.org/2000/svg" viewBox="0 0 500 500"><defs><style>.cls-1{fill:#fff;}</style></defs><path class="cls-1" d="M384.71,112.74V387.74H109.71V112.74H384.71Zm-125.35,126.27h-25.84v87.84c0,12.95-5.4,16.27-13.87,16.27-8.9,0-12.58-6.08-16.63-13.26l-21.05,12.71c6.14,12.95,18.11,23.63,38.79,23.63,22.9,0,38.61-12.22,38.61-38.98v-88.21Zm103.92,91.22c0-21.61-12.34-31.24-34.31-40.64l-6.45-2.76c-11.11-4.85-15.9-7.98-15.9-15.71,0-6.26,4.79-11.05,12.34-11.05s12.22,3.13,16.64,11.05l20.13-12.89c-8.47-14.98-20.26-20.69-36.71-20.69-23.02,0-37.81,14.73-37.81,34.13,0,21.05,12.34,31.06,31,38.98l6.45,2.76c11.85,5.22,18.84,8.35,18.84,17.19,0,7.43-6.87,12.77-17.56,12.77-12.71,0-19.95-6.69-25.47-15.71l-21.05,12.15c7.55,14.98,23.08,26.4,47.08,26.4s42.78-12.77,42.78-35.97Z"/></svg>