<?xml version="1.0" encoding="UTF-8"?><svg id="Layer_1" xmlns="http://www.w3.org/2000/svg" viewBox="0 0 500 500"><defs><style>.cls-1{fill:#fff;}</style></defs><g id="xpia4J.tif"><g><path class="cls-1" d="M245.91,77.88c.57,0,1.15,0,1.72,0,1.19,.18,2.38,.5,3.58,.5,9.13,.01,18.16,1.12,27.1,2.79,21.44,4.01,41.44,11.78,59.91,23.42,25.76,16.23,45.92,37.76,60.25,64.61,12.82,24.03,19.72,49.7,20.17,77.02,.02,1.2,.33,2.39,.5,3.58v1.29c-.18,1.34-.5,2.67-.52,4.01-.13,11.95-1.8,23.7-4.62,35.28-6.63,27.26-19.07,51.54-37.5,72.73-16.22,18.64-35.55,33.14-58,43.42-24.37,11.16-49.98,16.5-76.8,15.46-7-.27-14.03-.79-20.95-1.81-20.7-3.05-40.19-9.8-58.41-20.13-28.91-16.39-51.37-39.17-67.08-68.43-14.36-26.74-21.2-55.35-20.39-85.78,.32-12.02,1.73-23.86,4.58-35.51,8.73-35.72,26.77-65.91,54.61-89.94,31.04-26.79,67.22-40.76,108.26-42,1.2-.04,2.39-.33,3.58-.51Zm1.29,68.75c-.33,.88-.54,1.19-.55,1.49-.03,4.1-2.24,7.03-5.21,9.48-11.09,9.13-19.65,20.29-26.22,32.97-7.98,15.39-12.36,31.78-13.56,49.12-.83,12.03,.2,23.78,3.77,35.24,6.74,21.64,19.67,39.02,37.21,53.15,.73,.59,1.44,1.44,1.69,2.31,.39,1.35,.38,2.83,.53,4.25,.63,5.69,1.33,11.37,1.84,17.07,.21,2.43,1.76,2.06,3.33,2.14,1.77,.1,1.87-1.04,2.08-2.32,1.24-7.62,2.51-15.24,3.86-22.84,.14-.81,.75-1.7,1.41-2.22,11.39-8.9,20.23-19.89,26.8-32.71,5.81-11.35,9.23-23.39,10.22-36.14,.8-10.28,.56-20.5-1.83-30.55-5.54-23.29-15.85-44.08-32.99-61.08-5-4.97-8.56-10.72-11.33-17.09-.26-.6-.56-1.19-1.07-2.28Z"/><path class="cls-1" d="M249.09,229.82c2.53,29.71,2.9,59.63,3.98,89.53l-.53,.22c-.52-.86-1.15-1.67-1.53-2.59-2.58-6.23-3.83-12.72-3.8-19.46,.06-11.98-.02-23.97,.24-35.95,.21-9.96,.81-19.9,1.26-29.85,.03-.63,.25-1.26,.38-1.89Z"/></g></g></svg>