<?xml version="1.0" encoding="UTF-8"?><svg id="Layer_1" xmlns="http://www.w3.org/2000/svg" viewBox="0 0 500 500"><defs><style>.cls-1{fill:#fff;}</style></defs><path class="cls-1" d="M152.46,217.62l-.11,54.06c0,.74-.4,1.48-1.02,1.82-.63,.4-1.48,.4-2.11,0l-20.71-11.89c-1.31-.74-2.11-2.16-2.11-3.64v-25.27c0-1.48-.8-2.9-2.11-3.64l-8.82-5.06c-.63-.4-1.37-.57-2.11-.57s-1.42,.17-2.11,.57l-8.82,5.06c-1.31,.74-2.11,2.16-2.11,3.64v25.27c0,1.48-.8,2.84-2.11,3.64l-20.71,11.89c-.68,.4-1.48,.4-2.11,0-.63-.4-1.02-1.08-1.02-1.82l-.06-54.06c0-1.48,.8-2.9,2.11-3.64l34.83-20.09c.63-.34,1.25-.57,1.94-.57h.34c.68,.06,1.37,.23,1.94,.57l34.88,20.09c1.31,.74,2.11,2.11,2.11,3.64h0Zm95.2,41.66c-.29,1.14-1.02,2.11-2.05,2.67l-34.71,20.03c-1.25,.74-2.85,.8-4.21,0l-34.83-20.03c-1.19-.68-2.28-2.05-2.28-3.64v-40.06c0-1.54,.91-2.9,2.22-3.64l34.77-20.03c1.37-.8,3.02-.68,4.21,0l34.77,20.03c1.31,.74,2.22,2.16,2.22,3.64v40.06c0,.34-.06,.68-.11,.97Zm-42-71.76h-.63l.46-.28,.17,.28Zm52.07,177.66l32.89-19.01c2.16-1.19,3.47-3.53,3.47-5.97v-37.96c0-2.45-1.37-4.72-3.47-5.97l-32.89-19.01c-2.05-1.2-4.78-1.2-6.89,0l-32.89,19.01c-2.16,1.19-3.47,3.53-3.47,5.97v37.96c0,2.45,1.37,4.72,3.47,5.97l8.65,4.95c4.15,2.05,5.69,2.05,7.57,2.05,6.2,0,9.73-3.7,9.73-10.24v-37.5c0-.57-.46-.97-.97-.97h-4.15c-.57,0-.97,.46-.97,.97v37.5c0,2.85-3.02,5.75-7.91,3.3l-8.99-5.18c-.29-.17-.51-.51-.51-.85v-37.96c0-.34,.17-.74,.51-.91l32.89-18.95c.34-.17,.74-.17,1.02,0l32.89,18.95c.34,.17,.51,.51,.51,.91v37.96c0,.4-.23,.74-.51,.91l-32.89,19.01c-.28,.17-.74,.17-1.02,0l-8.42-5.01c-.23-.11-.57-.17-.8-.06-2.33,1.37-2.79,1.54-4.95,2.28-.57,.17-1.37,.51,.28,1.42l10.93,6.49c1.08,.57,2.28,.91,3.47,.91s2.45-.34,3.41-.97Zm6.66-25.21c-14.4,0-17.41-6.6-17.41-12.12,0-.57,.46-.97,.97-.97h4.27c.51,0,.91,.34,.97,.8,.63,4.32,2.56,6.49,11.27,6.49,6.94,0,9.9-1.54,9.9-5.24,0-2.11-.85-3.64-11.61-4.72-8.99-.91-14.57-2.84-14.57-10.07,0-6.6,5.58-10.58,14.97-10.58,10.53,0,15.71,3.64,16.39,11.49,.06,.29-.06,.51-.23,.74-.17,.17-.4,.28-.68,.28h-4.27c-.46,0-.8-.28-.91-.74-1.02-4.55-3.53-6.03-10.3-6.03-7.57,0-8.42,2.62-8.42,4.61,0,2.39,1.02,3.07,11.27,4.44,10.13,1.37,14.91,3.24,14.91,10.36s-5.97,11.27-16.5,11.27Zm-15.76-78.53v-.51l.23,.4-.23,.11Zm92.42-106.47l-20.77-11.61c-1.42-.8-3.13,.23-3.13,1.82v53.49c0,1.08-1.25,1.82-2.22,1.25l-8.71-5.01c-1.31-.74-2.9-.74-4.21,0l-34.88,20.14c-1.31,.74-2.11,2.16-2.11,3.64v40.29c0,1.48,.8,2.9,2.11,3.64l34.88,20.14c1.31,.74,2.9,.74,4.21,0l34.88-20.14c1.31-.74,2.11-2.16,2.11-3.64v-100.38c0-1.54-.85-2.96-2.16-3.64Zm-24.07,76.99v13.83c0,.4-.17,.74-.51,.91l-11.95,6.89c-.28,.17-.68,.17-1.02,0l-11.95-6.89c-.29-.17-.51-.51-.51-.91v-13.83c0-.4,.17-.74,.51-.91l11.95-6.94c.34-.17,.74-.17,1.08,0l11.95,6.94c.29,.17,.51,.51,.51,.91h-.06Zm-11.38,61.91c-3.36,0-6.32,2.73-6.32,6.32s2.85,6.32,6.32,6.32,6.32-2.84,6.32-6.32-2.9-6.37-6.32-6.32Zm-.06,11.67c-2.9,0-5.29-2.39-5.29-5.35s2.39-5.29,5.29-5.29,5.35,2.33,5.35,5.29-2.39,5.29-5.35,5.35Zm2.45-3.7c-.17-.91-.23-1.54-1.19-1.59,.51-.17,1.37-.46,1.37-1.76,0-1.88-1.65-1.88-2.5-1.88h-2.45v7.11h1.37v-2.84h1.25c.51,0,.63,.23,.74,.63,0,.06,.23,1.88,.28,2.22h1.48c-.17-.34-.28-1.31-.34-1.88Zm-2.33-2.11h-1.08v-1.99h1.14c.34,0,1.02,0,1.02,.97,0,.4-.17,1.02-1.08,1.02Zm109.89-56.05c-1.42,.8-3.19-.23-3.19-1.82v-9.9c0-.74-.46-1.42-1.08-1.82l-10.93-6.32c-.63-.4-1.48-.4-2.11,0l-10.93,6.32c-.68,.4-1.08,1.08-1.08,1.82v12.63c0,.74,.4,1.42,1.08,1.82l35.11,20.14c1.42,.8,1.42,2.84,0,3.64l-20.94,11.67c-1.31,.74-2.9,.74-4.15,0l-34.66-19.75c-1.31-.74-2.11-2.11-2.11-3.64v-40.29c0-1.48,.8-2.9,2.11-3.64l34.88-20.14c1.31-.74,2.9-.74,4.21,0l34.66,20.14c1.31,.74,2.11,2.16,2.11,3.64v9.73c0,1.48-.8,2.9-2.11,3.64l-20.88,12.12Zm-16.39-14c.23-.17,.57-.17,.8,0l6.72,3.87c.23,.11,.4,.4,.4,.68v7.74c0,.29-.17,.51-.4,.68l-6.72,3.87c-.23,.17-.57,.17-.8,0l-6.72-3.87c-.23-.11-.4-.4-.4-.68v-7.74c0-.29,.17-.51,.4-.68l6.72-3.87Z"/></svg>