<?xml version="1.0" encoding="UTF-8"?><svg id="Layer_1" xmlns="http://www.w3.org/2000/svg" viewBox="0 0 500 500"><defs><style>.cls-1{fill:#fff;}</style></defs><path class="cls-1" d="M422.94,249.88c0,21.41-28.24,42.29-67.22,55.19-2.09,.68-4.19,1.35-6.35,1.96,.74,3.11,1.42,6.15,2.03,9.12,7.7,38.91,1.76,70.86-16.48,81.4-17.63,10.2-46.21,.14-75.12-24.72-3.11-2.7-6.22-5.47-9.19-8.38-2.36,2.3-4.73,4.46-7.09,6.55-29.86,26.14-60.53,36.95-78.77,26.41-17.7-10.2-23.24-39.92-16.15-77.42,.81-4.12,1.69-8.11,2.7-12.16-3.11-.88-6.15-1.89-9.19-2.9-37.49-12.84-65.05-33.98-65.05-55.06s25.87-40.13,61.95-52.62c3.99-1.42,8.24-2.77,12.57-3.99-.95-3.78-1.76-7.5-2.5-11.28-7.43-38.1-2.16-68.57,15.54-78.83,18.44-10.74,49.25,.74,79.98,28.03,1.89,1.69,3.78,3.45,5.61,5.2,2.7-2.63,5.54-5.27,8.44-7.77,29.32-25.54,58.3-36.14,76.06-25.94,18.44,10.67,23.91,43.03,15.6,83.29-.54,2.5-1.08,5-1.69,7.5,3.65,1.08,7.3,2.23,10.94,3.45,36.75,12.63,63.37,32.49,63.37,52.96Zm-250.96,.34c-6.42-13.92-11.96-28.3-16.55-42.96-3.92,1.15-7.84,2.36-11.69,3.72-30.8,10.74-52.15,26.55-52.15,38.91,1.28,8.17,5.88,15.47,12.7,20.2,11.82,9.39,28.17,16.55,42.56,21.08,2.77,.95,5.54,1.82,8.38,2.63,4.66-14.86,10.27-29.45,16.75-43.57Zm68.5,103.76c-10.47-11.35-20.27-23.44-29.18-36.07-15.47-1.15-30.74-3.38-45.87-6.62-.95,3.72-1.76,7.5-2.5,11.28-6.08,32.09-1.62,55.93,9.12,62.15,7.7,3.04,16.35,2.7,23.85-.88,14.05-5.54,26.95-13.65,38.1-23.85,2.16-1.89,4.32-3.92,6.48-6.01Zm-77.21-174.76c.74,3.51,1.49,7.03,2.36,10.47,15-3.31,30.13-5.67,45.4-7.03,8.85-12.57,18.51-24.59,28.98-35.87-1.76-1.62-3.45-3.24-5.13-4.73-26.55-23.51-51.75-32.97-63.09-26.35-10.67,6.15-14.86,30.8-8.51,63.5Zm17.09,88.09c-4.32,10.27-8.04,20.33-11.01,30.06,10.34,2.23,20.81,3.92,31.34,5.07-3.72-5.74-7.23-11.62-10.67-17.5-3.38-5.81-6.55-11.69-9.66-17.63Zm0-34.18c3.04-5.94,6.28-11.82,9.59-17.56,3.31-5.81,6.82-11.55,10.4-17.16-10.74,1.35-21.08,3.11-30.8,5.27,2.97,9.52,6.55,19.39,10.81,29.45Zm22.22,44.52c5.2,8.98,10.74,17.77,16.62,26.35,9.93,.61,20.2,.95,30.8,.95s21.08-.34,31.14-1.08c5.74-8.65,11.21-17.36,16.35-26.35,5.2-9.05,10.07-18.24,14.59-27.56-4.59-9.26-9.46-18.37-14.66-27.29s-10.67-17.63-16.42-26.14c-10.07-.74-20.47-1.15-31.01-1.15s-20.87,.41-31.01,1.15c-5.81,8.58-11.35,17.29-16.48,26.28s-10,18.1-14.46,27.43c4.53,9.32,9.32,18.44,14.52,27.43Zm16.48-27.49c0-17.09,13.85-30.94,30.94-30.94s30.94,13.85,30.94,30.94-13.85,30.94-30.94,30.94-30.94-13.85-30.94-30.94Zm10.88-68.84c13.38-.61,26.82-.61,40.19,0-6.22-8.38-12.9-16.48-20-24.18-6.76,7.36-13.58,15.47-20.2,24.18Zm40.6,137.67c-6.76,.34-13.58,.47-20.54,.47s-13.44-.14-19.93-.4c6.69,8.85,13.58,17.09,20.47,24.52,7.09-7.84,13.78-16.01,20-24.59Zm-10.27-172.19c10.4,11.28,20,23.31,28.78,35.87,15.27,1.35,30.47,3.78,45.46,7.16,.61-2.23,1.08-4.46,1.55-6.76,7.16-34.79,2.77-61.27-8.65-67.82-10.67-6.15-34.11,2.43-59.24,24.32-2.7,2.36-5.27,4.73-7.9,7.23Zm76.88,172.26c-.54-2.7-1.15-5.47-1.82-8.24-15.2,3.45-30.6,5.81-46.07,7.09-8.65,12.7-18.17,24.79-28.51,36.21,2.9,2.7,5.74,5.34,8.58,7.77,24.72,21.21,47.63,29.32,58.37,23.1,6.49-5.2,10.54-12.9,11.15-21.14,2.16-15,1.62-30.2-1.69-44.79Zm-37.56-16.96c10.67-1.22,21.28-3.04,31.75-5.4-3.31-10.2-7.09-20.13-11.42-29.93-3.17,6.08-6.42,12.09-9.86,18.04-3.38,5.81-6.82,11.62-10.47,17.29Zm31.07-98.29c-9.73-2.23-20.13-4.05-31.01-5.4,3.58,5.61,7.03,11.28,10.34,17.02,3.38,5.81,6.62,11.75,9.79,17.7,4.12-9.59,7.77-19.32,10.88-29.32Zm77.75,45.94c0-12.29-22.09-28.37-53.57-39.18-3.24-1.08-6.62-2.16-10.13-3.17-4.59,14.52-10.07,28.71-16.55,42.49,6.69,13.98,12.5,28.37,17.23,43.1,1.96-.54,3.85-1.15,5.74-1.76,33.71-11.15,57.29-28.24,57.29-41.48Z"/></svg>